<?xml version="1.0" encoding="utf-8"?>
<!-- Generator: Adobe Illustrator 26.0.2, SVG Export Plug-In . SVG Version: 6.00 Build 0)  -->
<svg version="1.1" xmlns="http://www.w3.org/2000/svg" xmlns:xlink="http://www.w3.org/1999/xlink" x="0px" y="0px"
	 viewBox="0 0 130 111.38" style="enable-background:new 0 0 130 111.38;" xml:space="preserve">
<g id="Calque_1">
</g>
<g id="Calque_2">
</g>
<g id="Calque_3">
	<g>
		<g>
			<g>
				<g>
					<path style="fill:#CCCCCC;" d="M17.21,47.49c0.2,0,0.4-0.01,0.6-0.02c0.19-0.02,0.36-0.12,0.47-0.28
						c0.11-0.16,0.13-0.36,0.07-0.54c-0.13-0.39-0.25-0.78-0.36-1.17c-0.27-0.9-0.55-1.83-0.97-2.69c-0.41-0.84-0.96-1.61-1.48-2.35
						c-0.23-0.32-0.45-0.63-0.66-0.95c-0.02-0.02-0.03-0.05-0.05-0.07l-2.25-2.54c-0.01-0.01-0.03-0.03-0.04-0.04
						c-1.6-1.52-3.51-2.02-5.89-2.29c-0.02,0-0.05,0-0.07,0c-0.15,0-0.3,0.06-0.42,0.16c-0.13,0.12-0.21,0.3-0.2,0.48
						C6.09,41.28,11.78,47.49,17.21,47.49z"/>
					<path style="fill:#CCCCCC;" d="M20.53,6.51c-0.03,0-0.06-0.01-0.08-0.01c-0.15,0-0.29,0.05-0.4,0.15
						c-2.43,2.06-4.04,5.45-4.31,9.06c-0.23,3.09,0.57,5.93,2.2,7.8c0.12,0.14,0.29,0.21,0.47,0.21c0,0,0,0,0,0
						c0.18,0,0.35-0.08,0.47-0.22c4.94-5.84,5.64-11.47,2.08-16.74C20.86,6.63,20.71,6.53,20.53,6.51z"/>
					<path style="fill:#CCCCCC;" d="M16.83,36.86c0.06,0.02,0.12,0.03,0.18,0.03c0.1,0,0.21-0.03,0.3-0.08
						c0.15-0.08,0.25-0.22,0.3-0.38c1.84-6.71-0.94-13.39-6.45-15.53c-0.07-0.03-0.15-0.04-0.23-0.04c-0.1,0-0.2,0.02-0.29,0.07
						c-0.16,0.08-0.27,0.23-0.32,0.41C8.69,28.22,11.67,35.33,16.83,36.86z"/>
					<path style="fill:#CCCCCC;" d="M17.46,59.43c0.2,0,0.4-0.01,0.6-0.03c0.18-0.02,0.35-0.11,0.45-0.26
						c0.11-0.15,0.14-0.33,0.1-0.51c-0.63-2.66-1.3-5.03-3-7.02c-2.19-3.84-5.96-4.74-8.61-5.08c-0.03,0-0.05,0-0.08,0
						c-0.15,0-0.3,0.06-0.42,0.16c-0.14,0.12-0.21,0.3-0.21,0.48C6.44,53.24,12.07,59.43,17.46,59.43z"/>
					<path style="fill:#CCCCCC;" d="M47.23,92.97c-0.02-0.18-0.12-0.35-0.27-0.45c-2.57-1.77-5.64-2.74-8.65-2.74
						c-3.5,0-6.51,1.31-8.28,3.61c-0.1,0.13-0.15,0.3-0.12,0.47c0.02,0.17,0.11,0.32,0.25,0.42c2.34,1.71,5.26,2.65,8.22,2.65
						c3.4,0,6.57-1.26,8.68-3.45C47.18,93.33,47.24,93.15,47.23,92.97z"/>
					<path style="fill:#CCCCCC;" d="M37.4,86.47c0-0.19-0.08-0.37-0.23-0.49c-2.85-2.33-6.23-3.61-9.52-3.61
						c-2.9,0-5.47,0.98-7.43,2.82c-0.13,0.12-0.2,0.29-0.2,0.47c0,0.18,0.08,0.34,0.22,0.46c2.61,2.25,5.87,3.49,9.18,3.49
						c2.87,0,5.55-0.92,7.73-2.66C37.31,86.84,37.4,86.66,37.4,86.47z"/>
					<path style="fill:#CCCCCC;" d="M23.67,71.05c0.17-0.05,0.31-0.16,0.39-0.32c0.08-0.16,0.09-0.34,0.03-0.51
						c-1.12-2.92-2.89-4.98-5.41-6.32l-0.08-0.06l-1.25-0.82c-1.35-1.01-2.89-1.48-4.85-1.48c-1.01,0-2.03,0.12-3.08,0.26
						c-0.19,0.02-0.35,0.13-0.45,0.29c-0.1,0.16-0.12,0.36-0.06,0.53c1.73,5,6.97,8.76,12.18,8.76
						C21.97,71.39,22.84,71.27,23.67,71.05z"/>
					<path style="fill:#CCCCCC;" d="M21.8,24.08c-0.32,0.59-0.41,1.24-0.5,1.87c-0.04,0.27-0.07,0.52-0.12,0.76
						c-0.03,0.16,0,0.33,0.09,0.47c0.09,0.14,0.24,0.24,0.4,0.27c0.25,0.05,0.51,0.12,0.79,0.2c0.52,0.15,1.06,0.3,1.62,0.3
						c0.16,0,0.32-0.01,0.46-0.04c3.71-0.66,6.79-2.63,9.15-5.83c0.34-0.46,0.54-0.99,0.73-1.5c0.09-0.23,0.18-0.47,0.28-0.71
						c0.07-0.16,0.07-0.34,0-0.5c-0.07-0.16-0.2-0.28-0.36-0.34c-0.91-0.33-1.9-0.49-2.94-0.49C27.54,18.53,23.59,20.81,21.8,24.08z
						"/>
					<path style="fill:#CCCCCC;" d="M27.5,72.48c0.08,0,0.17-0.02,0.25-0.05c3.34-1.45,4.29-4.44,4.71-6.56
						c0.46-2.27,0.37-4.64,0.23-6.65c-0.08-1.13-0.72-1.9-1.6-1.9c-0.39,0-0.99,0.16-1.62,0.91c-0.17,0.2-0.35,0.41-0.52,0.62
						c-1.02,1.19-2.07,2.42-2.63,3.87c-1.01,2.61-1.84,6.06,0.68,9.5C27.12,72.39,27.31,72.48,27.5,72.48z"/>
					<path style="fill:#CCCCCC;" d="M20.86,60.74c0.03,0.16,0.13,0.31,0.26,0.4c0.1,0.07,0.23,0.11,0.35,0.11
						c0.04,0,0.08,0,0.12-0.01c0.24-0.05,0.49-0.08,0.76-0.11c0.65-0.07,1.33-0.15,1.91-0.5c3.49-2.11,5.67-5.31,6.49-9.5
						c0.09-0.46,0.02-0.92-0.06-1.49c-0.04-0.31-0.1-0.66-0.14-1.09c-0.02-0.21-0.15-0.4-0.33-0.49c-0.09-0.05-0.19-0.07-0.29-0.07
						c-0.11,0-0.21,0.03-0.31,0.08l-2.49,1.42l-1.75,1c-0.06,0.01-0.11,0.04-0.17,0.07c-2.56,1.5-4.13,3.9-4.81,7.33
						c-0.14,0.7,0.06,1.4,0.25,2.07C20.74,60.24,20.81,60.5,20.86,60.74z"/>
					<path style="fill:#CCCCCC;" d="M35.59,81.19c0.86,0,1.46-0.77,1.87-1.44c1.61-2.57,2.05-5.56,1.4-9.39
						c-0.17-1.03-0.58-1.98-1-3c-0.19-0.46-0.39-0.94-0.58-1.43c-0.07-0.18-0.22-0.32-0.4-0.38c-0.06-0.02-0.12-0.03-0.19-0.03
						c-0.13,0-0.25,0.04-0.36,0.11c-2.11,1.48-3.62,4.2-4.06,7.27c-0.39,2.78,0.17,5.44,1.51,7.12
						C34.23,80.58,34.82,81.19,35.59,81.19z"/>
					<path style="fill:#CCCCCC;" d="M43.03,72.68c-0.12-0.1-0.26-0.15-0.4-0.15c-0.12,0-0.24,0.04-0.35,0.11
						c-1.72,1.17-2.75,3.4-2.9,6.27c-0.18,3.39,0.95,6.82,2.75,8.35c0.53,0.45,0.99,0.66,1.45,0.66c0.9,0,1.41-0.82,1.58-1.09
						c1.45-2.33,1.34-4.9,1.14-6.64C45.99,77.62,45.46,74.7,43.03,72.68z"/>
					<path style="fill:#CCCCCC;" d="M25.83,16.44c0.46,0.08,0.94,0.13,1.42,0.13c5.7,0,11.26-6.01,11.63-10.75
						c0.03-0.34-0.22-0.63-0.56-0.67c-0.36-0.04-0.72-0.06-1.08-0.06c-5.49,0-10.5,4.46-11.91,10.6c-0.04,0.17-0.01,0.34,0.09,0.48
						C25.52,16.31,25.66,16.41,25.83,16.44z"/>
					<path style="fill:#CCCCCC;" d="M21.1,49.59c0.1,0.01,0.2,0.01,0.3,0.01c2.93,0,6.1-2.42,7.95-4.82
						c1.73-2.25,2.45-4.57,1.98-6.35c-0.07-0.26-0.29-0.44-0.56-0.46c-0.22-0.02-0.45-0.02-0.66-0.02c-2.09,0-3.87,0.73-5.3,2.16
						c-3.34,1.94-5.33,6.16-4.25,9.08C20.64,49.42,20.86,49.58,21.1,49.59z"/>
					<path style="fill:#CCCCCC;" d="M21.49,38.72h0.04c4.3,0,9.91-4.78,10.72-9.13c0.05-0.27-0.08-0.53-0.32-0.66
						c-0.66-0.35-1.44-0.53-2.31-0.53c-3.95,0-9.65,3.95-10.28,8.14c-0.1,0.68,0,1.2,0.33,1.58C20.11,38.64,20.84,38.72,21.49,38.72
						z"/>
					<path style="fill:#CCCCCC;" d="M30.89,79.27c0.16-0.1,0.26-0.26,0.29-0.45c0.02-0.19-0.04-0.37-0.17-0.51
						c-3-3.15-6.86-4.95-10.58-4.95c-2.28,0-4.39,0.68-6.11,1.97c-0.14,0.1-0.23,0.26-0.25,0.43c-0.02,0.17,0.04,0.34,0.15,0.48
						c2.62,2.99,6.51,4.78,10.4,4.78C26.89,81.02,29.06,80.41,30.89,79.27z"/>
					<path style="fill:#CCCCCC;" d="M123.44,34.54c-0.02,0-0.05,0-0.07,0c-2.38,0.28-4.29,0.78-5.89,2.29
						c-0.01,0.01-0.03,0.03-0.04,0.04l-0.09,0.1l-2.16,2.44c-0.02,0.02-0.04,0.04-0.05,0.07c-0.21,0.32-0.44,0.64-0.66,0.95
						c-0.53,0.74-1.08,1.5-1.48,2.35c-0.42,0.87-0.7,1.8-0.97,2.69c-0.12,0.39-0.23,0.78-0.36,1.17c-0.06,0.18-0.03,0.38,0.07,0.54
						c0.11,0.16,0.28,0.26,0.47,0.28c0.2,0.02,0.4,0.02,0.6,0.02c5.43,0,11.12-6.22,11.27-12.32c0-0.18-0.07-0.35-0.2-0.48
						C123.74,34.59,123.59,34.54,123.44,34.54z"/>
					<path style="fill:#CCCCCC;" d="M111.59,23.73C111.59,23.73,111.59,23.73,111.59,23.73c0.18,0,0.36-0.08,0.47-0.21
						c1.63-1.87,2.43-4.72,2.2-7.8c-0.27-3.61-1.88-7-4.31-9.06c-0.11-0.1-0.26-0.15-0.4-0.15c-0.03,0-0.06,0-0.08,0.01
						c-0.18,0.02-0.33,0.12-0.43,0.27c-3.56,5.27-2.86,10.9,2.08,16.74C111.24,23.65,111.41,23.73,111.59,23.73z"/>
					<path style="fill:#CCCCCC;" d="M112.39,36.43c0.04,0.16,0.15,0.3,0.3,0.38c0.09,0.05,0.2,0.08,0.3,0.08
						c0.06,0,0.12-0.01,0.18-0.03c5.16-1.54,8.14-8.65,6.5-15.53c-0.04-0.17-0.16-0.32-0.32-0.41c-0.09-0.05-0.19-0.07-0.29-0.07
						c-0.08,0-0.15,0.01-0.23,0.04C113.33,23.04,110.56,29.72,112.39,36.43z"/>
					<path style="fill:#CCCCCC;" d="M123.08,46.53c-0.03,0-0.05,0-0.08,0c-5.52,0.71-7.56,3.24-8.61,5.08
						c-1.7,1.99-2.37,4.36-3,7.02c-0.04,0.18-0.01,0.36,0.1,0.51c0.11,0.15,0.27,0.24,0.45,0.26c0.2,0.02,0.4,0.03,0.6,0.03
						c5.39,0,11.02-6.19,11.16-12.26c0-0.18-0.07-0.36-0.21-0.48C123.38,46.59,123.23,46.53,123.08,46.53z"/>
					<path style="fill:#CCCCCC;" d="M91.69,89.77c-3.01,0-6.08,0.97-8.65,2.74c-0.15,0.1-0.25,0.27-0.27,0.45
						c-0.02,0.18,0.04,0.36,0.17,0.49c2.11,2.19,5.28,3.45,8.68,3.45c2.96,0,5.88-0.94,8.22-2.65c0.14-0.1,0.23-0.25,0.25-0.42
						c0.02-0.17-0.02-0.34-0.12-0.47C98.21,91.09,95.19,89.77,91.69,89.77z"/>
					<path style="fill:#CCCCCC;" d="M102.35,82.38c-3.29,0-6.67,1.28-9.52,3.61c-0.15,0.12-0.23,0.3-0.23,0.49
						c0,0.19,0.09,0.37,0.23,0.48c2.19,1.74,4.86,2.66,7.73,2.66c3.31,0,6.57-1.24,9.18-3.49c0.13-0.12,0.21-0.28,0.22-0.46
						c0-0.18-0.07-0.35-0.2-0.47C107.85,83.38,105.21,82.38,102.35,82.38z"/>
					<path style="fill:#CCCCCC;" d="M120.59,61.8c-1.05-0.13-2.08-0.26-3.08-0.26c-1.96,0-3.5,0.47-4.85,1.48l-1.25,0.82l-0.08,0.06
						c-2.52,1.34-4.29,3.41-5.41,6.32c-0.06,0.16-0.05,0.35,0.03,0.51c0.08,0.16,0.22,0.27,0.39,0.32c0.83,0.22,1.7,0.34,2.59,0.34
						c5.21,0,10.44-3.77,12.18-8.76c0.06-0.18,0.04-0.37-0.06-0.53C120.94,61.93,120.78,61.82,120.59,61.8z"/>
					<path style="fill:#CCCCCC;" d="M95.57,20.57c0.2,0.51,0.4,1.05,0.73,1.5c2.36,3.21,5.44,5.17,9.15,5.83
						c0.15,0.03,0.3,0.04,0.46,0.04c0.55,0,1.09-0.15,1.62-0.3c0.28-0.08,0.54-0.15,0.79-0.2c0.16-0.03,0.31-0.13,0.4-0.27
						c0.09-0.14,0.12-0.31,0.09-0.47c-0.05-0.24-0.09-0.49-0.12-0.76c-0.09-0.63-0.18-1.28-0.5-1.87c-1.78-3.27-5.73-5.55-9.61-5.55
						c-1.04,0-2.03,0.17-2.94,0.49c-0.16,0.06-0.29,0.18-0.36,0.34c-0.07,0.16-0.07,0.34,0,0.5C95.39,20.1,95.48,20.34,95.57,20.57z
						"/>
					<path style="fill:#CCCCCC;" d="M102.25,72.43c0.08,0.04,0.17,0.05,0.25,0.05c0.19,0,0.38-0.09,0.5-0.26
						c2.52-3.44,1.69-6.89,0.68-9.5c-0.56-1.45-1.61-2.68-2.63-3.87c-0.18-0.21-0.35-0.41-0.52-0.62c-0.63-0.75-1.23-0.91-1.62-0.91
						c-0.88,0-1.52,0.76-1.6,1.9c-0.14,2.01-0.22,4.37,0.23,6.65C97.96,68,98.91,70.98,102.25,72.43z"/>
					<path style="fill:#CCCCCC;" d="M107.65,61.13c0.27,0.03,0.52,0.06,0.76,0.11c0.04,0.01,0.08,0.01,0.12,0.01
						c0.12,0,0.24-0.04,0.35-0.11c0.14-0.09,0.23-0.24,0.26-0.4c0.05-0.25,0.12-0.51,0.2-0.78c0.19-0.67,0.39-1.37,0.25-2.07
						c-0.68-3.43-2.25-5.83-4.81-7.33c-0.05-0.03-0.11-0.05-0.17-0.07l-1.75-1l-2.48-1.42c-0.1-0.05-0.2-0.08-0.31-0.08
						c-0.1,0-0.2,0.02-0.29,0.07c-0.19,0.1-0.31,0.28-0.33,0.49c-0.04,0.43-0.09,0.78-0.14,1.09c-0.08,0.58-0.15,1.03-0.06,1.49
						c0.82,4.19,3,7.38,6.49,9.5C106.32,60.98,107,61.06,107.65,61.13z"/>
					<path style="fill:#CCCCCC;" d="M94.41,81.19c0.77,0,1.36-0.62,1.79-1.15c1.34-1.68,1.91-4.34,1.51-7.12
						c-0.44-3.07-1.95-5.79-4.06-7.27c-0.11-0.07-0.23-0.11-0.36-0.11c-0.06,0-0.12,0.01-0.18,0.03c-0.18,0.06-0.33,0.2-0.4,0.38
						c-0.18,0.49-0.38,0.97-0.58,1.43c-0.43,1.01-0.83,1.97-1,3c-0.65,3.83-0.2,6.81,1.4,9.39C92.95,80.42,93.54,81.19,94.41,81.19z
						"/>
					<path style="fill:#CCCCCC;" d="M87.72,72.64c-0.11-0.07-0.23-0.11-0.35-0.11c-0.14,0-0.28,0.05-0.4,0.15
						c-2.42,2.02-2.95,4.94-3.26,7.51c-0.21,1.73-0.31,4.31,1.14,6.64c0.17,0.27,0.68,1.09,1.58,1.09c0.46,0,0.92-0.21,1.45-0.66
						c1.79-1.52,2.92-4.96,2.75-8.35C90.46,76.04,89.44,73.82,87.72,72.64z"/>
					<path style="fill:#CCCCCC;" d="M104.17,16.44c0.17-0.03,0.32-0.13,0.41-0.27s0.12-0.32,0.09-0.48
						c-1.41-6.14-6.42-10.6-11.91-10.6c-0.36,0-0.72,0.02-1.08,0.06c-0.34,0.04-0.58,0.33-0.56,0.67
						c0.38,4.74,5.93,10.75,11.63,10.75C103.23,16.57,103.71,16.52,104.17,16.44z"/>
					<path style="fill:#CCCCCC;" d="M105.19,40.11c-1.43-1.43-3.21-2.16-5.3-2.16c-0.22,0-0.44,0.01-0.66,0.02
						c-0.27,0.02-0.49,0.2-0.56,0.46c-0.47,1.79,0.25,4.1,1.98,6.35c1.84,2.4,5.01,4.82,7.95,4.82c0.1,0,0.2,0,0.3-0.01
						c0.25-0.01,0.46-0.17,0.55-0.41C110.52,46.27,108.53,42.05,105.19,40.11z"/>
					<path style="fill:#CCCCCC;" d="M110.66,36.54c-0.64-4.19-6.33-8.14-10.28-8.14h0c-0.87,0-1.65,0.18-2.31,0.53
						c-0.24,0.13-0.37,0.4-0.32,0.66c0.81,4.35,6.41,9.13,10.71,9.13h0.04c0.65,0,1.38-0.08,1.83-0.61
						C110.66,37.73,110.77,37.22,110.66,36.54z"/>
					<path style="fill:#CCCCCC;" d="M109.57,73.36c-3.73,0-7.59,1.81-10.59,4.95c-0.13,0.14-0.19,0.32-0.17,0.51
						c0.02,0.19,0.13,0.35,0.29,0.45c1.83,1.14,4,1.75,6.27,1.75c3.89,0,7.77-1.79,10.4-4.78c0.11-0.13,0.17-0.3,0.15-0.48
						c-0.02-0.17-0.11-0.33-0.25-0.43C113.96,74.04,111.84,73.36,109.57,73.36z"/>
					<path style="fill:#CCCCCC;" d="M85.62,101.32c-5.58-1.66-11.15-3.33-16.72-5c-0.33-0.1-0.6-0.3-0.61-0.45
						c0-0.15,0.25-0.39,0.56-0.53c0.54-0.25,1.08-0.5,1.62-0.73c2.21-0.94,4.39-2,6.66-2.76c1.58-0.53,2.4-1.3,2.12-2.92
						c-0.06-0.34-0.4-0.49-0.71-0.35c-2.64,1.2-5.26,2.42-7.92,3.56c-1.63,0.7-3.23,1.92-5.18,0.73c-0.1-0.06-0.26-0.08-0.43-0.08
						c-0.17,0-0.33,0.01-0.43,0.08c-1.95,1.19-3.55-0.03-5.18-0.73c-2.66-1.14-5.29-2.36-7.92-3.56c-0.31-0.14-0.65,0.01-0.71,0.35
						c-0.28,1.62,0.54,2.39,2.12,2.92c2.27,0.76,4.45,1.82,6.66,2.76c0.55,0.23,1.08,0.48,1.62,0.73c0.31,0.14,0.56,0.38,0.56,0.53
						c0,0.15-0.28,0.36-0.61,0.45c-5.58,1.67-11.15,3.34-16.72,5c-1.94,0.58-3.54,2.37-4,4.51c-0.07,0.34,0.14,0.53,0.43,0.43
						c0.18-0.06,0.35-0.12,0.52-0.19c6.32-2.47,12.64-4.93,18.95-7.42c1.32-0.52,2.54-1.2,3.99-0.23c0.1,0.07,0.22,0.09,0.36,0.1
						c0.21,0.01,0.54,0.01,0.75,0c0.14-0.01,0.26-0.03,0.36-0.1c1.45-0.97,2.67-0.29,3.99,0.23c6.31,2.49,12.63,4.95,18.95,7.42
						c0.17,0.07,0.34,0.13,0.52,0.19c0.29,0.1,0.5-0.1,0.43-0.43C89.16,103.69,87.56,101.89,85.62,101.32z"/>
				</g>
			</g>
		</g>
		<path style="fill:#CCCCCC;" d="M63.73,13.48c-13.86,0-25.1,11.24-25.1,25.1s11.24,25.1,25.1,25.1s25.1-11.24,25.1-25.1
			S77.59,13.48,63.73,13.48z M79.92,36.34l-6.15,6.06c-0.41,0.4-0.59,0.97-0.49,1.54l1.51,8.5c0.25,1.41-1.23,2.5-2.5,1.84
			l-7.67-3.97c-0.51-0.26-1.11-0.26-1.61,0.01l-7.62,4.06c-1.27,0.68-2.76-0.4-2.52-1.81l1.41-8.52c0.09-0.56-0.1-1.13-0.51-1.53
			l-6.22-5.99c-1.03-1-0.48-2.74,0.94-2.96l8.54-1.29c0.56-0.09,1.05-0.44,1.3-0.95l3.78-7.77c0.63-1.29,2.46-1.3,3.11-0.02
			l3.87,7.72c0.26,0.51,0.74,0.86,1.31,0.94l8.55,1.19C80.37,33.59,80.95,35.33,79.92,36.34z"/>
	</g>
</g>
<g id="Calque_4">
</g>
<g id="Calque_5">
</g>
<g id="Calque_6">
</g>
<g id="Calque_7">
</g>
<g id="Calque_8">
</g>
<g id="Calque_9">
</g>
</svg>
